<svg width="897" height="170" viewBox="0 0 897 170" fill="none" xmlns="http://www.w3.org/2000/svg">
<rect y="12.5493" width="70.0673" height="156.345" fill="#FCF8C9"/>
<path d="M319.898 79.6592L348.635 12.0283H384.193L358.255 82.168C357.593 83.9586 357.593 85.9272 358.255 87.7178L388.492 169.482H345.043L319.898 110.305L294.752 169.482H254.248L281.605 92.9189C282.227 91.1783 282.227 89.2758 281.605 87.5352L254.626 12.0283H291.16L319.898 79.6592Z" fill="#FCF8C9"/>
<rect x="121.6" width="127.784" height="8" fill="#FCF8C9"/>
<rect x="121.6" y="13" width="127.5" height="156.345" fill="#FCF8C9"/>
<rect x="812" y="10" width="46.3731" height="157" fill="#FCF8C9"/>
<rect x="834.973" y="10" width="61.8307" height="43" fill="#FCF8C9"/>
<rect x="834.671" y="76" width="61.8307" height="31" fill="#FCF8C9"/>
<rect x="834.973" y="129" width="61.8307" height="38" fill="#FCF8C9"/>
<rect x="396.282" y="12.5493" width="48.677" height="157.394" fill="#FCF8C9"/>
<rect x="420.621" y="13" width="60.8002" height="43" fill="#FCF8C9"/>
<rect x="420.621" y="80" width="60.8002" height="30" fill="#FCF8C9"/>
<rect x="420.621" y="132" width="60.8002" height="38" fill="#FCF8C9"/>
<rect x="485.371" y="13" width="31.9459" height="157" fill="#FCF8C9"/>
<rect x="491.554" y="138" width="76.2579" height="32" fill="#FCF8C9"/>
<path d="M736.962 169.25H677.639L654.005 121.442L630.371 169.25H571.048L654.005 8L736.962 169.25ZM638.583 120.632H669.595L654.089 89.0303L638.583 120.632Z" fill="#FCF8C9"/>
<rect x="625.046" y="114.96" width="53.4644" height="32.4121" fill="#FCF8C9"/>
<path d="M741.19 11H785.19V168H741.19V11Z" fill="#FCF8C9"/>
<rect x="719.685" y="11" width="88" height="35" fill="#FCF8C9"/>
<path d="M98.5674 12.5488C106.299 12.549 112.567 18.8172 112.567 26.5488V76.1973C112.567 83.9291 106.299 90.1971 98.5674 90.1973H35.6074V12.5488H98.5674ZM70 20V81.9082H87.21C94.9419 81.9081 101.21 75.6401 101.21 67.9082V34C101.21 26.2681 94.9419 20.0001 87.21 20H70Z" fill="#FCF8C9"/>
</svg>
