<svg width="270" height="91" viewBox="0 0 270 91" fill="none" xmlns="http://www.w3.org/2000/svg">
<path d="M0.0568182 44L4.88636 14.9091H17.4432C19.6023 14.9091 21.4205 15.3352 22.8977 16.1875C24.375 17.0398 25.4356 18.2377 26.0795 19.7812C26.7235 21.3248 26.875 23.1288 26.5341 25.1932C26.1932 27.2955 25.4356 29.1089 24.2614 30.6335C23.0966 32.1487 21.6098 33.3182 19.8011 34.142C18.0019 34.9564 15.9848 35.3636 13.75 35.3636H6.25L7.27273 29.2273H13.1818C14.1288 29.2273 14.9621 29.0663 15.6818 28.7443C16.4015 28.4129 16.9839 27.9489 17.429 27.3523C17.8741 26.7462 18.1629 26.0265 18.2955 25.1932C18.428 24.3598 18.3665 23.6496 18.1108 23.0625C17.8646 22.4659 17.4384 22.0114 16.8324 21.6989C16.2358 21.3769 15.4735 21.2159 14.5455 21.2159H11.7614L7.95455 44H0.0568182ZM39.0341 14.9091L34.2045 44H26.3068L31.1364 14.9091H39.0341ZM50.902 14.9091L54.2543 23.375H54.4815L60.7315 14.9091H69.8793L58.7997 29.4545L65.3906 44H56.5838L53.0611 35.3636H52.8338L46.4702 44H37.2656L48.6293 29.4545L42.3793 14.9091H50.902ZM68.4553 44L73.2848 14.9091H94.2507L93.1712 21.2727H80.103L79.3075 26.2727H91.2962L90.2166 32.6364H78.228L77.4325 37.6364H90.4439L89.3643 44H68.4553ZM93.3381 44L98.1676 14.9091H106.065L102.315 37.6364H114.077L112.997 44H93.3381ZM123.746 44H115.224L129.656 14.9091H140.451L145.224 44H136.701L133.86 22.9205H133.633L123.746 44ZM124.087 32.5227H140.11L139.087 38.4318H123.065L124.087 32.5227ZM147.308 21.2727L148.388 14.9091H173.672L172.592 21.2727H163.842L160.092 44H152.308L156.058 21.2727H147.308ZM171.815 44L176.644 14.9091H197.61L196.531 21.2727H183.462L182.667 26.2727H194.656L193.576 32.6364H181.587L180.792 37.6364H193.803L192.724 44H171.815Z" fill="white"/>
<path d="M263.703 27.7464C263.453 27.7396 263.203 27.7329 262.953 27.7262C262.817 29.9142 261.984 31.9966 260.717 33.75C255.319 40.7696 245.699 43.0278 237.039 42.853C237.039 42.853 237.039 42.853 237.039 42.853C226.598 42.6309 212.985 37.5221 212.53 26.3709C213.48 15.2295 227.384 10.6933 237.896 10.9515C246.613 11.1633 256.236 14.0343 261.168 21.5169C262.316 23.3764 262.991 25.5361 262.953 27.7262C263.203 27.7329 263.453 27.7396 263.703 27.7464C263.803 25.4047 263.129 23.0581 261.95 21.05C256.863 12.9802 246.962 9.89154 237.935 9.5076C227.123 9.18585 212.205 13.0995 210.67 26.3209C211.387 39.6308 226.101 44.5079 236.985 44.8523C236.985 44.8523 236.985 44.8523 236.985 44.8523C246.074 45.0357 256.271 42.3917 261.713 34.4195C262.977 32.4359 263.733 30.0911 263.703 27.7464Z" fill="#FCF8C9"/>
<path d="M258.53 27.6073C258.28 27.6006 258.03 27.5939 257.78 27.5872C257.648 29.4386 257.162 31.2384 256.371 32.8846C253.15 39.5625 245.536 43.1376 238.332 42.8878C238.332 42.8878 238.332 42.8878 238.332 42.8878C229.341 42.8754 219.991 35.8388 220.289 26.5795C220.384 17.3129 230.087 10.6004 239.189 10.9863C246.493 11.0379 254.071 15.1859 256.793 22.1712C257.463 23.8887 257.804 25.733 257.78 27.5872C258.03 27.5939 258.28 27.6006 258.53 27.6073C258.612 25.659 258.308 23.6948 257.647 21.8528C254.956 14.3529 247.009 9.74979 239.228 9.54238C229.585 8.93627 218.707 15.9345 218.429 26.5295C218.032 37.1231 228.496 44.883 238.278 44.887C238.278 44.887 238.278 44.887 238.278 44.887C246.15 45.1888 254.508 40.8593 257.471 33.3638C258.2 31.5272 258.563 29.5586 258.53 27.6073Z" fill="#FCF8C9"/>
<path d="M248.184 27.3292C247.934 27.3225 247.684 27.3158 247.434 27.3091C247.313 28.7318 247.09 30.1352 246.761 31.5069C245.517 36.7619 242.202 42.8322 237.039 42.853C230.48 42.193 227.879 33.3681 228.048 26.788C228.173 20.2159 231.001 11.4308 237.896 10.9515C243.367 11.2282 246.326 17.7142 247.131 23.0618C247.346 24.4628 247.445 25.8834 247.434 27.3091C247.684 27.3158 247.934 27.3225 248.184 27.3292C248.251 25.8662 248.204 24.3987 248.033 22.9397C247.325 17.432 244.82 10.2307 237.935 9.5076C229.201 10.1488 226.518 19.7773 226.188 26.738C226.085 33.6957 227.998 43.5538 236.985 44.8523C236.985 44.8523 236.985 44.8523 236.985 44.8523C244.213 44.5385 247.091 37.2348 247.94 31.7314C248.15 30.2681 248.228 28.7953 248.184 27.3292Z" fill="#FCF8C9"/>
<path d="M263.702 27.7463C263.453 27.7395 263.203 27.7328 262.953 27.7261C262.703 29.2076 260.657 29.9625 259.044 30.5153C252.084 32.5262 244.618 32.6343 237.317 32.5073C237.317 32.5073 237.317 32.5073 237.317 32.5073C232.735 32.3795 228.161 31.9847 223.675 31.1697C221.446 30.7582 219.213 30.2406 217.109 29.5026C216.067 29.1331 215.027 28.6973 214.136 28.1574C213.244 27.6388 212.474 26.8465 212.53 26.3708C212.487 25.8905 213.296 25.1235 214.213 24.6426C215.129 24.1393 216.19 23.7479 217.251 23.423C219.391 22.7752 221.649 22.3546 223.899 22.0398C228.426 21.4199 233.023 21.2245 237.618 21.297C244.937 21.489 252.425 22.0455 259.256 24.5982C260.83 25.2741 262.841 26.2127 262.953 27.7261C263.203 27.7328 263.453 27.7395 263.702 27.7463C263.449 25.327 261.215 24.5835 259.614 23.7602C252.596 20.9179 245.084 20.2029 237.657 19.8531C233 19.6868 228.333 19.8009 223.68 20.3666C221.364 20.6559 219.032 21.053 216.742 21.7143C215.602 22.0492 214.448 22.4511 213.341 23.0398C212.305 23.6572 210.858 24.3812 210.67 26.3208C210.741 28.2693 212.144 29.0872 213.143 29.7702C214.213 30.4294 215.344 30.9047 216.462 31.3123C218.711 32.1194 221.018 32.6649 223.316 33.1019C227.933 33.9641 232.593 34.3759 237.263 34.5066C237.263 34.5066 237.263 34.5066 237.263 34.5066C244.714 34.6307 252.295 34.275 259.455 31.6426C261.093 30.869 263.376 30.1721 263.702 27.7463Z" fill="#FCF8C9"/>
<path d="M10.7386 62.3636V64.3452H1.3679V62.3636H10.7386ZM4.29545 57.6591H6.58381V76.8736C6.58381 77.6918 6.72443 78.3352 7.00568 78.804C7.28693 79.2642 7.65341 79.5923 8.10511 79.7884C8.55682 79.9759 9.03835 80.0696 9.54972 80.0696C9.84801 80.0696 10.1037 80.0526 10.3168 80.0185C10.5298 79.9759 10.7173 79.9332 10.8793 79.8906L11.3651 81.9489C11.1435 82.0341 10.8707 82.1108 10.5469 82.179C10.223 82.2557 9.82244 82.294 9.34517 82.294C8.50994 82.294 7.70455 82.1108 6.92898 81.7443C6.16193 81.3778 5.53125 80.8324 5.03693 80.108C4.54261 79.3835 4.29545 78.4844 4.29545 77.4105V57.6591ZM18.604 69.7273V82H16.3285V55.8182H18.604V65.4446H18.8086C19.2688 64.4304 19.9805 63.6207 20.9435 63.0156C21.9151 62.4105 23.1424 62.108 24.6254 62.108C25.9549 62.108 27.1225 62.3807 28.1282 62.9261C29.1339 63.4716 29.918 64.277 30.4805 65.3423C31.043 66.4077 31.3242 67.7202 31.3242 69.2798V82H29.0359V69.4205C29.0359 67.8011 28.5842 66.527 27.6808 65.598C26.7859 64.6605 25.5756 64.1918 24.0501 64.1918C23.0018 64.1918 22.0685 64.4134 21.2504 64.8565C20.4322 65.2997 19.7844 65.9389 19.3072 66.7741C18.8384 67.6009 18.604 68.5852 18.604 69.7273ZM45.2557 82.4091C43.4233 82.4091 41.8381 81.983 40.5 81.1307C39.1619 80.2699 38.1264 79.081 37.3935 77.5639C36.669 76.0384 36.3068 74.2827 36.3068 72.2969C36.3068 70.3196 36.669 68.5639 37.3935 67.0298C38.1264 65.4872 39.1364 64.2812 40.4233 63.4119C41.7188 62.5341 43.2145 62.0952 44.9105 62.0952C45.9759 62.0952 47.0028 62.2912 47.9915 62.6832C48.9801 63.0668 49.8665 63.6591 50.6506 64.4602C51.4432 65.2528 52.0696 66.2543 52.5298 67.4645C52.9901 68.6662 53.2202 70.0895 53.2202 71.7344V72.8594H37.8793V70.8523H50.8935C50.8935 69.5909 50.6378 68.4574 50.1264 67.4517C49.6236 66.4375 48.9205 65.6364 48.017 65.0483C47.1222 64.4602 46.0866 64.1662 44.9105 64.1662C43.6662 64.1662 42.571 64.4986 41.625 65.1634C40.679 65.8281 39.9375 66.706 39.4006 67.7969C38.8722 68.8878 38.6037 70.081 38.5952 71.3764V72.5781C38.5952 74.1378 38.8636 75.5014 39.4006 76.669C39.946 77.8281 40.7173 78.7273 41.7145 79.3665C42.7116 80.0057 43.892 80.3253 45.2557 80.3253C46.1847 80.3253 46.9986 80.1804 47.6974 79.8906C48.4048 79.6009 48.9972 79.2131 49.4744 78.7273C49.9602 78.233 50.3267 77.6918 50.5739 77.1037L52.7344 77.8068C52.4361 78.6335 51.946 79.3963 51.2642 80.0952C50.5909 80.794 49.7472 81.3565 48.733 81.7827C47.7273 82.2003 46.5682 82.4091 45.2557 82.4091ZM75.4293 82.4091C73.8185 82.4091 72.408 81.983 71.1978 81.1307C69.9876 80.2784 69.0415 79.0895 68.3597 77.5639C67.6864 76.0384 67.3498 74.2614 67.3498 72.233C67.3498 70.2131 67.6864 68.4446 68.3597 66.9276C69.0415 65.402 69.9918 64.2173 71.2106 63.3736C72.4293 62.5213 73.8484 62.0952 75.4677 62.0952C76.6609 62.0952 77.6538 62.3082 78.4464 62.7344C79.239 63.152 79.8739 63.6719 80.3512 64.294C80.8285 64.9162 81.1992 65.5213 81.4634 66.1094H81.668V55.8182H83.9563V82H81.7319V78.3565H81.4634C81.1992 78.9531 80.8242 79.5668 80.3384 80.1974C79.8526 80.8196 79.2092 81.3437 78.408 81.7699C77.6154 82.196 76.6225 82.4091 75.4293 82.4091ZM75.6978 80.3253C76.9677 80.3253 78.0501 79.9801 78.945 79.2898C79.8398 78.5909 80.5217 77.6321 80.9904 76.4134C81.4677 75.1861 81.7063 73.7798 81.7063 72.1946C81.7063 70.6264 81.4719 69.2415 81.0032 68.0398C80.5344 66.8295 79.8526 65.8835 78.9577 65.2017C78.0629 64.5114 76.9762 64.1662 75.6978 64.1662C74.3853 64.1662 73.2773 64.5241 72.3739 65.2401C71.479 65.9474 70.7972 66.9062 70.3285 68.1165C69.8683 69.3267 69.6381 70.6861 69.6381 72.1946C69.6381 73.7202 69.8725 75.0966 70.3413 76.3239C70.81 77.5511 71.4918 78.527 72.3867 79.2514C73.2901 79.9673 74.3938 80.3253 75.6978 80.3253ZM98.3768 82.4091C96.5444 82.4091 94.9592 81.983 93.6211 81.1307C92.283 80.2699 91.2475 79.081 90.5146 77.5639C89.7901 76.0384 89.4279 74.2827 89.4279 72.2969C89.4279 70.3196 89.7901 68.5639 90.5146 67.0298C91.2475 65.4872 92.2575 64.2812 93.5444 63.4119C94.8398 62.5341 96.3356 62.0952 98.0316 62.0952C99.0969 62.0952 100.124 62.2912 101.113 62.6832C102.101 63.0668 102.988 63.6591 103.772 64.4602C104.564 65.2528 105.191 66.2543 105.651 67.4645C106.111 68.6662 106.341 70.0895 106.341 71.7344V72.8594H91.0004V70.8523H104.015C104.015 69.5909 103.759 68.4574 103.248 67.4517C102.745 66.4375 102.042 65.6364 101.138 65.0483C100.243 64.4602 99.2077 64.1662 98.0316 64.1662C96.7873 64.1662 95.6921 64.4986 94.7461 65.1634C93.8001 65.8281 93.0586 66.706 92.5217 67.7969C91.9933 68.8878 91.7248 70.081 91.7163 71.3764V72.5781C91.7163 74.1378 91.9847 75.5014 92.5217 76.669C93.0671 77.8281 93.8384 78.7273 94.8356 79.3665C95.8327 80.0057 97.0131 80.3253 98.3768 80.3253C99.3058 80.3253 100.12 80.1804 100.819 79.8906C101.526 79.6009 102.118 79.2131 102.596 78.7273C103.081 78.233 103.448 77.6918 103.695 77.1037L105.855 77.8068C105.557 78.6335 105.067 79.3963 104.385 80.0952C103.712 80.794 102.868 81.3565 101.854 81.7827C100.848 82.2003 99.6893 82.4091 98.3768 82.4091ZM124.549 66.6719L122.465 67.2599C122.261 66.6719 121.971 66.1392 121.596 65.6619C121.221 65.1847 120.731 64.8054 120.126 64.5241C119.529 64.2429 118.788 64.1023 117.901 64.1023C116.572 64.1023 115.481 64.4176 114.629 65.0483C113.776 65.679 113.35 66.4929 113.35 67.4901C113.35 68.3338 113.64 69.0199 114.219 69.5483C114.808 70.0682 115.711 70.4815 116.93 70.7884L119.896 71.517C121.54 71.9176 122.772 72.5526 123.59 73.4219C124.417 74.2912 124.83 75.3821 124.83 76.6946C124.83 77.8026 124.523 78.7869 123.91 79.6477C123.296 80.5085 122.44 81.1861 121.34 81.6804C120.249 82.1662 118.984 82.4091 117.543 82.4091C115.626 82.4091 114.045 81.9787 112.8 81.1179C111.556 80.2486 110.759 78.9957 110.41 77.3594L112.596 76.8224C112.877 77.9901 113.427 78.8722 114.245 79.4688C115.072 80.0653 116.158 80.3636 117.505 80.3636C119.013 80.3636 120.219 80.027 121.123 79.3537C122.026 78.6719 122.478 77.8196 122.478 76.7969C122.478 76.0043 122.214 75.3395 121.685 74.8026C121.157 74.2571 120.356 73.8565 119.282 73.6009L116.073 72.8338C114.369 72.4247 113.107 71.777 112.289 70.8906C111.471 70.0043 111.062 68.9048 111.062 67.5923C111.062 66.5099 111.356 65.5597 111.944 64.7415C112.532 63.9148 113.342 63.267 114.373 62.7983C115.404 62.3295 116.58 62.0952 117.901 62.0952C119.7 62.0952 121.136 62.5043 122.21 63.3224C123.292 64.1321 124.072 65.2486 124.549 66.6719ZM129.838 82V62.3636H132.127V82H129.838ZM131.002 58.9886C130.533 58.9886 130.132 58.831 129.8 58.5156C129.468 58.1918 129.301 57.804 129.301 57.3523C129.301 56.9006 129.468 56.517 129.8 56.2017C130.132 55.8778 130.533 55.7159 131.002 55.7159C131.471 55.7159 131.871 55.8778 132.203 56.2017C132.536 56.517 132.702 56.9006 132.702 57.3523C132.702 57.804 132.536 58.1918 132.203 58.5156C131.871 58.831 131.471 58.9886 131.002 58.9886ZM145.636 89.7727C144.298 89.7727 143.126 89.598 142.121 89.2486C141.115 88.9077 140.267 88.4389 139.577 87.8423C138.886 87.2457 138.349 86.5767 137.966 85.8352L139.832 84.608C140.114 85.1023 140.489 85.5881 140.957 86.0653C141.435 86.5426 142.053 86.9389 142.811 87.2543C143.578 87.5696 144.52 87.7273 145.636 87.7273C147.375 87.7273 148.777 87.2926 149.842 86.4233C150.916 85.554 151.453 84.2031 151.453 82.3707V77.9474H151.249C150.984 78.544 150.605 79.1406 150.111 79.7372C149.616 80.3253 148.969 80.8153 148.168 81.2074C147.375 81.5994 146.391 81.7955 145.214 81.7955C143.646 81.7955 142.253 81.4077 141.034 80.6321C139.824 79.8565 138.869 78.7486 138.17 77.3082C137.48 75.8594 137.135 74.1335 137.135 72.1307C137.135 70.1449 137.472 68.3977 138.145 66.8892C138.827 65.3807 139.777 64.2045 140.996 63.3608C142.214 62.517 143.634 62.0952 145.253 62.0952C146.455 62.0952 147.452 62.3082 148.244 62.7344C149.037 63.152 149.672 63.6719 150.149 64.294C150.635 64.9162 151.014 65.5213 151.287 66.1094H151.517V62.3636H153.741V82.5114C153.741 84.1733 153.388 85.5412 152.68 86.6151C151.973 87.6889 151.01 88.4815 149.791 88.9929C148.572 89.5128 147.188 89.7727 145.636 89.7727ZM145.483 79.7116C146.744 79.7116 147.822 79.4091 148.717 78.804C149.612 78.1903 150.298 77.3125 150.776 76.1705C151.253 75.0284 151.491 73.669 151.491 72.0923C151.491 70.5582 151.257 69.1989 150.788 68.0142C150.32 66.821 149.638 65.8835 148.743 65.2017C147.857 64.5114 146.77 64.1662 145.483 64.1662C144.17 64.1662 143.063 64.5199 142.159 65.2273C141.256 65.9347 140.574 66.8892 140.114 68.0909C139.653 69.2841 139.423 70.6179 139.423 72.0923C139.423 73.5923 139.658 74.9176 140.126 76.0682C140.595 77.2102 141.281 78.1051 142.185 78.7528C143.088 79.392 144.188 79.7116 145.483 79.7116ZM162.042 69.7273V82H159.766V62.3636H161.978V65.4446H162.182C162.642 64.4389 163.358 63.6335 164.33 63.0284C165.31 62.4148 166.52 62.108 167.961 62.108C169.282 62.108 170.441 62.3849 171.438 62.9389C172.444 63.4844 173.223 64.2898 173.777 65.3551C174.34 66.4205 174.621 67.7287 174.621 69.2798V82H172.346V69.4205C172.346 67.8097 171.894 66.5355 170.99 65.598C170.096 64.6605 168.894 64.1918 167.385 64.1918C166.354 64.1918 165.438 64.4134 164.637 64.8565C163.836 65.2997 163.201 65.9389 162.732 66.7741C162.272 67.6009 162.042 68.5852 162.042 69.7273ZM198.409 82.4091C196.653 82.4091 195.124 81.9702 193.82 81.0923C192.524 80.2145 191.518 79.0128 190.803 77.4872C190.087 75.9616 189.729 74.223 189.729 72.2713C189.729 70.3026 190.091 68.5511 190.815 67.017C191.548 65.483 192.563 64.2812 193.858 63.4119C195.153 62.5341 196.658 62.0952 198.371 62.0952C199.683 62.0952 200.872 62.3509 201.938 62.8622C203.003 63.3651 203.881 64.0767 204.571 64.9972C205.27 65.9091 205.709 66.9744 205.888 68.1932H203.587C203.348 67.0852 202.773 66.1392 201.861 65.3551C200.957 64.5625 199.807 64.1662 198.409 64.1662C197.156 64.1662 196.048 64.5071 195.085 65.1889C194.122 65.8622 193.368 66.804 192.822 68.0142C192.286 69.2159 192.017 70.6094 192.017 72.1946C192.017 73.7884 192.281 75.1989 192.81 76.4261C193.338 77.6449 194.08 78.5994 195.034 79.2898C195.997 79.9801 197.122 80.3253 198.409 80.3253C199.278 80.3253 200.071 80.1634 200.787 79.8395C201.511 79.5071 202.116 79.0384 202.602 78.4332C203.097 77.8281 203.429 77.108 203.599 76.2727H205.901C205.73 77.4574 205.308 78.5142 204.635 79.4432C203.97 80.3636 203.105 81.0881 202.04 81.6165C200.983 82.1449 199.773 82.4091 198.409 82.4091ZM213.053 55.8182V82H210.778V55.8182H213.053ZM231.552 74.4957V62.3636H233.827V82H231.552V78.7401H231.373C230.913 79.7457 230.184 80.5852 229.187 81.2585C228.19 81.9233 226.971 82.2557 225.531 82.2557C224.278 82.2557 223.165 81.983 222.194 81.4375C221.222 80.8835 220.46 80.0739 219.906 79.0085C219.352 77.9432 219.075 76.6349 219.075 75.0838V62.3636H221.35V74.9432C221.35 76.4773 221.802 77.7131 222.705 78.6506C223.609 79.5795 224.768 80.044 226.183 80.044C227.069 80.044 227.921 79.831 228.739 79.4048C229.558 78.9787 230.231 78.3565 230.759 77.5384C231.288 76.7116 231.552 75.6974 231.552 74.4957ZM240.325 82V55.8182H242.613V66.1094H242.818C243.074 65.5213 243.44 64.9162 243.917 64.294C244.403 63.6719 245.038 63.152 245.822 62.7344C246.615 62.3082 247.612 62.0952 248.814 62.0952C250.424 62.0952 251.839 62.5213 253.058 63.3736C254.277 64.2173 255.227 65.402 255.909 66.9276C256.591 68.4446 256.931 70.2131 256.931 72.233C256.931 74.2614 256.591 76.0384 255.909 77.5639C255.235 79.0895 254.289 80.2784 253.071 81.1307C251.86 81.983 250.454 82.4091 248.852 82.4091C247.659 82.4091 246.662 82.196 245.86 81.7699C245.068 81.3437 244.429 80.8196 243.943 80.1974C243.457 79.5668 243.082 78.9531 242.818 78.3565H242.537V82H240.325ZM242.575 72.1946C242.575 73.7798 242.809 75.1861 243.278 76.4134C243.755 77.6321 244.437 78.5909 245.324 79.2898C246.218 79.9801 247.301 80.3253 248.571 80.3253C249.875 80.3253 250.978 79.9673 251.882 79.2514C252.785 78.527 253.471 77.5511 253.94 76.3239C254.409 75.0966 254.643 73.7202 254.643 72.1946C254.643 70.6861 254.409 69.3267 253.94 68.1165C253.48 66.9062 252.798 65.9474 251.895 65.2401C250.991 64.5241 249.883 64.1662 248.571 64.1662C247.292 64.1662 246.206 64.5114 245.311 65.2017C244.424 65.8835 243.747 66.8295 243.278 68.0398C242.809 69.2415 242.575 70.6264 242.575 72.1946ZM263.745 82.1918C263.243 82.1918 262.808 82.0128 262.441 81.6548C262.083 81.2884 261.904 80.8537 261.904 80.3509C261.904 79.8395 262.083 79.4048 262.441 79.0469C262.808 78.6889 263.243 78.5099 263.745 78.5099C264.257 78.5099 264.691 78.6889 265.049 79.0469C265.407 79.4048 265.586 79.8395 265.586 80.3509C265.586 80.6832 265.501 80.9901 265.331 81.2713C265.169 81.5526 264.947 81.7784 264.666 81.9489C264.393 82.1108 264.086 82.1918 263.745 82.1918Z" fill="white"/>
</svg>
